<?xml version="1.0" standalone="no"?>
<!DOCTYPE svg PUBLIC "-//W3C//DTD SVG 20010904//EN"
 "http://www.w3.org/TR/2001/REC-SVG-20010904/DTD/svg10.dtd">
<svg version="1.0" xmlns="http://www.w3.org/2000/svg"
 width="150.000000pt" height="150.000000pt" viewBox="0 0 150.000000 150.000000"
 preserveAspectRatio="xMidYMid meet">

<g transform="translate(0.000000,150.000000) scale(0.100000,-0.100000)"
fill="#000000" stroke="none">
<path d="M645 1291 c-58 -15 -157 -75 -196 -119 -21 -25 -51 -70 -66 -101 -25
-50 -28 -67 -28 -161 0 -93 3 -111 27 -162 15 -32 31 -58 36 -58 5 0 -1 21
-14 48 -70 143 -40 322 73 435 150 150 396 150 546 0 114 -114 143 -291 72
-435 -13 -27 -20 -48 -14 -48 6 0 22 26 36 58 38 81 43 193 13 281 -39 117
-97 182 -210 235 -55 26 -78 31 -155 33 -49 1 -104 -1 -120 -6z"/>
<path d="M582 1132 c-52 -26 -54 -27 -68 -8 -16 23 -19 13 -3 -15 8 -16 0 -41
-40 -130 -28 -60 -51 -112 -51 -114 0 -2 10 -13 21 -24 43 -40 153 -36 192 7
14 15 11 27 -38 132 l-53 115 56 16 c37 11 65 13 80 8 31 -12 32 -12 32 10 0
39 -55 41 -128 3z m47 -254 c1 -5 -42 -8 -94 -8 -52 0 -95 4 -95 9 0 5 21 54
46 108 l47 98 48 -100 c26 -55 48 -103 48 -107z"/>
<path d="M797 1153 c-4 -3 -7 -14 -7 -24 0 -16 4 -17 25 -9 18 7 38 5 68 -4
23 -8 50 -16 59 -18 14 -2 8 -21 -37 -118 -49 -105 -52 -117 -38 -132 40 -45
152 -47 192 -4 l22 23 -51 109 c-41 86 -49 113 -41 126 6 10 11 23 11 30 0 8
-5 5 -11 -4 -13 -24 -29 -23 -80 7 -42 24 -98 33 -112 18z m219 -169 c24 -52
44 -100 44 -105 0 -5 -43 -9 -95 -9 -52 0 -95 2 -95 5 0 9 93 205 97 205 2 0
24 -43 49 -96z"/>
<path d="M520 680 c-69 -5 -138 -11 -155 -13 -16 -2 157 -4 385 -4 244 0 384
3 340 7 -134 14 -442 19 -570 10z"/>
<path d="M1019 571 c-48 -48 -30 -110 36 -127 30 -7 75 9 75 28 0 9 -3 9 -12
0 -13 -13 -57 -16 -75 -4 -21 14 -26 60 -9 87 19 29 51 32 78 8 17 -15 18 -15
18 4 0 15 -9 22 -31 27 -46 9 -48 9 -80 -23z"/>
<path d="M208 583 c7 -3 12 -26 12 -63 0 -37 -5 -60 -12 -64 -7 -3 11 -4 41
-3 65 2 86 23 57 55 -11 13 -14 22 -7 27 16 10 13 42 -5 49 -9 3 -34 6 -57 5
-23 0 -36 -3 -29 -6z m75 -15 c7 -21 -4 -38 -24 -38 -14 0 -19 7 -19 25 0 18
5 25 19 25 11 0 21 -6 24 -12z m-5 -57 c21 -13 10 -46 -16 -49 -17 -3 -22 1
-22 21 0 35 13 45 38 28z"/>
<path d="M380 533 c-13 -32 -28 -64 -33 -70 -7 -10 -4 -13 11 -13 15 0 19 5
15 21 -5 18 -2 20 28 17 25 -2 34 -8 33 -20 -1 -14 6 -18 30 -18 19 0 26 3 19
8 -7 4 -24 35 -37 67 -13 33 -28 61 -34 63 -5 1 -20 -23 -32 -55z m40 -15 c0
-10 -7 -18 -15 -18 -16 0 -19 17 -9 45 5 13 8 14 15 3 5 -7 9 -21 9 -30z"/>
<path d="M518 578 c16 -16 16 -115 0 -121 -7 -3 15 -6 50 -6 58 -1 62 0 62 22
-1 20 -2 20 -11 5 -6 -11 -22 -18 -39 -18 -30 0 -30 0 -30 59 0 38 4 61 13 64
6 3 -4 6 -22 6 -27 1 -32 -2 -23 -11z"/>
<path d="M695 543 c-9 -26 -24 -58 -31 -70 -13 -21 -13 -23 5 -23 12 0 18 6
17 18 -1 12 8 18 33 20 30 3 33 1 28 -17 -4 -18 -1 -21 26 -21 18 0 27 4 20 8
-6 4 -22 34 -35 66 -13 33 -28 61 -34 63 -6 2 -19 -18 -29 -44z m45 -35 c0 -4
-9 -8 -20 -8 -21 0 -24 8 -13 36 6 16 7 16 20 -2 7 -10 13 -21 13 -26z"/>
<path d="M827 578 c14 -19 16 -98 2 -114 -9 -11 -6 -14 17 -14 19 0 25 3 16 9
-9 5 -12 24 -10 52 l3 44 40 -52 c54 -70 65 -68 65 11 0 42 4 66 13 69 6 3 -4
5 -23 5 -19 0 -29 -2 -22 -5 7 -3 12 -23 12 -50 l0 -45 -40 51 c-26 32 -48 51
-61 51 -16 0 -19 -3 -12 -12z"/>
<path d="M1165 520 l0 -70 58 0 c47 0 57 3 57 17 0 13 -3 14 -12 5 -7 -7 -25
-12 -41 -12 -25 0 -28 3 -25 28 3 27 8 29 41 17 12 -5 17 -2 17 12 0 16 -5 19
-30 15 -27 -4 -30 -1 -30 22 0 22 4 26 29 26 16 0 32 -6 34 -12 3 -8 6 -6 6 5
1 14 -8 17 -51 17 l-53 0 0 -70z"/>
<path d="M308 333 l-37 -48 39 -3 c33 -3 40 -7 41 -25 l0 -22 9 23 c5 12 15
22 22 22 8 0 6 5 -4 11 -12 7 -18 22 -18 49 0 22 -4 40 -8 40 -4 0 -24 -21
-44 -47z m42 -13 c0 -25 -4 -30 -25 -30 -30 0 -30 4 -7 35 23 33 32 31 32 -5z"/>
</g>
</svg>
